<svg width="14" height="18" viewBox="0 0 14 18" fill="none" xmlns="http://www.w3.org/2000/svg">
<path fill-rule="evenodd" clip-rule="evenodd" d="M5.32227 16.5498L12.9512 16.5498C13.1605 12.0357 12.8382 9.65228 9.13672 9.72683C6.02692 9.7462 5.32131 11.7327 5.32227 16.5498ZM11.8613 14.9444L6.41211 14.9444C6.40641 11.0909 8.68407 11.315 9.13672 11.3322C9.58936 11.3495 11.9846 11.0637 11.8613 14.9444Z" fill="#20D7CC" stroke="#20D7CC" stroke-width="0.1"/>
<path fill-rule="evenodd" clip-rule="evenodd" d="M8.67773 1.08081L1.04883 1.08081C0.839522 5.59487 1.16178 7.97834 4.86328 7.90379C7.97308 7.88442 8.67869 5.89789 8.67773 1.08081ZM2.13868 2.68622L7.58789 2.68622C7.59359 6.53969 5.31593 6.31565 4.86328 6.29838C4.41064 6.28111 2.01541 6.56689 2.13868 2.68622Z" fill="#20D7CC" stroke="#20D7CC" stroke-width="0.1"/>
<path d="M13 6.6711L13 7.4931L12.706 7.4931C12.822 7.6371 12.912 7.7891 12.976 7.9491C13.036 8.1091 13.066 8.2651 13.066 8.4171C13.066 8.5971 13.022 8.7631 12.934 8.9151C12.846 9.0671 12.724 9.1991 12.568 9.3111C12.408 9.4191 12.218 9.5051 11.998 9.5691C11.778 9.6331 11.538 9.6651 11.278 9.6651C11.006 9.6651 10.752 9.6311 10.516 9.5631C10.28 9.4951 10.076 9.4031 9.904 9.2871C9.728 9.1671 9.592 9.0271 9.496 8.8671C9.396 8.7031 9.346 8.5271 9.346 8.3391C9.346 8.1751 9.382 8.0191 9.454 7.8711C9.522 7.7231 9.608 7.5971 9.712 7.4931L9.412 7.4931L9.412 6.6411L13 6.6711ZM10.834 8.5191C10.998 8.5191 11.13 8.4751 11.23 8.3871C11.33 8.2951 11.38 8.1791 11.38 8.0391C11.38 7.8871 11.326 7.7591 11.218 7.6551C11.11 7.5471 10.972 7.4931 10.804 7.4931C10.728 7.4931 10.656 7.5071 10.588 7.5351C10.52 7.5591 10.462 7.5951 10.414 7.6431C10.362 7.6911 10.322 7.7471 10.294 7.8111C10.266 7.8751 10.252 7.9431 10.252 8.0151C10.252 8.1591 10.306 8.2791 10.414 8.3751C10.522 8.4711 10.662 8.5191 10.834 8.5191ZM9.412 1.66991L13 2.35391L13 3.46391L11.188 3.76391L13 4.05791L13 5.16191L9.412 5.85791L9.412 4.95791L11.32 4.71191C11.404 4.69991 11.468 4.68591 11.512 4.66991C11.552 4.64991 11.572 4.61991 11.572 4.57991C11.572 4.54791 11.552 4.52391 11.512 4.50791C11.472 4.49191 11.408 4.47791 11.32 4.46591L9.412 4.17191L9.412 3.35591L11.32 3.04391C11.404 3.03191 11.468 3.01791 11.512 3.00191C11.552 2.98191 11.572 2.95391 11.572 2.91791C11.572 2.85791 11.488 2.81991 11.32 2.80391L9.412 2.56991L9.412 1.66991Z" fill="white"/>
<path d="M1.26538 12.7981L1.26538 11.9761L1.55938 11.9761C1.44338 11.8321 1.35338 11.6801 1.28938 11.5201C1.22938 11.3601 1.19938 11.2041 1.19938 11.0521C1.19938 10.8721 1.24338 10.7061 1.33138 10.5541C1.41938 10.4021 1.54138 10.2701 1.69738 10.1581C1.85738 10.0501 2.04738 9.96414 2.26738 9.90014C2.48738 9.83614 2.72738 9.80414 2.98738 9.80414C3.25938 9.80414 3.51338 9.83814 3.74938 9.90614C3.98538 9.97414 4.18938 10.0661 4.36138 10.1821C4.53738 10.3021 4.67338 10.4421 4.76938 10.6021C4.86938 10.7661 4.91938 10.9421 4.91938 11.1301C4.91938 11.2941 4.88338 11.4501 4.81138 11.5981C4.74338 11.7461 4.65738 11.8721 4.55338 11.9761L4.85338 11.9761L4.85338 12.8281L1.26538 12.7981ZM3.43138 10.9501C3.26738 10.9501 3.13538 10.9941 3.03538 11.0821C2.93538 11.1741 2.88538 11.2901 2.88538 11.4301C2.88538 11.5821 2.93938 11.7101 3.04738 11.8141C3.15538 11.9221 3.29338 11.9761 3.46138 11.9761C3.53738 11.9761 3.60938 11.9621 3.67738 11.9341C3.74538 11.9101 3.80338 11.8741 3.85138 11.8261C3.90338 11.7781 3.94338 11.7221 3.97138 11.6581C3.99938 11.5941 4.01338 11.5261 4.01338 11.4541C4.01338 11.3101 3.95938 11.1901 3.85138 11.0941C3.74338 10.9981 3.60338 10.9501 3.43138 10.9501ZM4.85338 14.7309L4.52938 14.7309C4.64938 14.8269 4.74338 14.9429 4.81138 15.0789C4.88338 15.2189 4.91938 15.3609 4.91938 15.5049C4.91938 15.6809 4.87138 15.8369 4.77538 15.9729C4.67938 16.1089 4.56538 16.1989 4.43338 16.2429C4.37338 16.2629 4.28938 16.2789 4.18138 16.2909C4.07738 16.3069 3.95938 16.3149 3.82738 16.3149L1.26538 16.3149L1.26538 15.4329L3.00538 15.4329C3.18538 15.4329 3.30538 15.3989 3.36538 15.3309C3.42938 15.2669 3.46138 15.1909 3.46138 15.1029C3.46138 14.9869 3.42338 14.8949 3.34738 14.8269C3.27538 14.7629 3.18138 14.7309 3.06538 14.7309L1.26538 14.7309L1.26538 13.8609C1.39738 13.8609 1.53538 13.8609 1.67938 13.8609C1.82738 13.8649 1.97338 13.8669 2.11738 13.8669C2.26538 13.8669 2.41138 13.8669 2.55538 13.8669C2.69938 13.8669 2.83538 13.8669 2.96338 13.8669C3.03938 13.8669 3.15338 13.8669 3.30538 13.8669C3.45738 13.8669 3.62338 13.8649 3.80338 13.8609C3.98338 13.8609 4.16738 13.8609 4.35538 13.8609C4.54338 13.8609 4.70938 13.8609 4.85338 13.8609L4.85338 14.7309Z" fill="white"/>
</svg>
