<svg width="38" height="38" viewBox="0 0 38 38" fill="none" xmlns="http://www.w3.org/2000/svg">
<path d="M35.1967 0.000143901H2.80328C2.06829 -0.00733606 1.36036 0.277057 0.834813 0.790921C0.309267 1.30478 0.00903629 2.00614 0 2.74111V35.2651C0.0106705 35.999 0.311619 36.6988 0.836987 37.2113C1.36236 37.7238 2.06936 38.0073 2.80328 37.9999H35.1967C35.9318 38.0057 36.6392 37.7203 37.1645 37.2061C37.6898 36.692 37.9901 35.9908 38 35.2558V2.73176C37.9869 1.99896 37.6851 1.30094 37.1601 0.789434C36.6352 0.27793 35.9296 -0.00571854 35.1967 0.000143901Z" fill="#D6CCED"/>
<path d="M7.42847 13.6399H12.8171V31H7.42847V13.6399ZM10.1243 5C10.7423 5 11.3465 5.18354 11.8604 5.52741C12.3742 5.87127 12.7747 6.36001 13.011 6.93179C13.2474 7.50357 13.3091 8.13271 13.1883 8.7396C13.0675 9.3465 12.7697 9.90389 12.3324 10.3413C11.8952 10.7786 11.3382 11.0763 10.732 11.1967C10.1257 11.3171 9.49745 11.2547 8.92661 11.0175C8.35577 10.7802 7.86803 10.3788 7.52509 9.864C7.18215 9.34918 6.99941 8.74407 7 8.12524C7.00079 7.2961 7.3303 6.50119 7.91613 5.91518C8.50197 5.32917 9.29619 5 10.1243 5ZM16.1973 13.6399H21.3628V16.0233H21.4342C22.1543 14.6588 23.9098 13.2198 26.5312 13.2198C31.9883 13.2079 33 16.8038 33 21.4664V31H27.6114V22.5538C27.6114 20.5428 27.5756 17.9538 24.8114 17.9538C22.0472 17.9538 21.577 20.1466 21.577 22.4227V31H16.1973V13.6399Z" fill="#262034"/>
</svg>
