<svg width="110" height="22" viewBox="0 0 110 22" fill="none" xmlns="http://www.w3.org/2000/svg">
<g clip-path="url(#clip0_37_86)">
<path d="M92.2835 0.00909615V3.49102H84.6832V21.8096H80.8827V3.49123H73.124V0.00909615H92.2835ZM93.1379 19.7329C93.4056 19.7329 93.6398 19.8277 93.8381 20.0177C94.0392 20.2074 94.1393 20.4348 94.1421 20.6997C94.1416 20.8735 94.0926 21.0438 94.0003 21.1919C93.9099 21.3382 93.7831 21.4593 93.6321 21.5441C93.4828 21.632 93.3119 21.6778 93.1379 21.6766C92.8595 21.6766 92.6228 21.5816 92.4247 21.3918C92.2264 21.2019 92.1282 20.9719 92.1308 20.6997C92.1284 20.4348 92.2264 20.2074 92.4247 20.0177C92.6228 19.8277 92.8595 19.7329 93.1379 19.7329ZM17.8148 21.8096L3.80171 4.65977V21.8007H0.0012207V0H4.75151L22.4555 21.6465L22.4557 3.49123L22.4542 0.00909615H41.6135V3.49102H26.256V9.09256H38.6066V12.5747H26.256V18.3277H41.6137V21.8096H17.8148ZM53.7935 12.5415L56.2841 15.5904L51.1807 21.8354H46.1932L53.7935 12.5415ZM51.1807 0.0181923L57.6108 7.88108L64.0207 0.0423077L68.9942 0.0349038L60.1008 10.926L69.0086 21.8187H64.0207L46.2074 0.0181923H51.1807ZM99.6241 12.4926H101.308V18.8811C101.306 19.4681 101.177 19.9701 100.925 20.3925C100.67 20.8145 100.317 21.1369 99.8637 21.3643C99.4129 21.589 98.8851 21.7041 98.285 21.7041C97.7366 21.7041 97.245 21.6067 96.8072 21.4168C96.3693 21.2268 96.0219 20.9421 95.7669 20.5672C95.5091 20.1926 95.383 19.7253 95.383 19.1658H97.0699C97.0725 19.4106 97.129 19.6227 97.2371 19.8004C97.3435 19.9758 97.4991 20.1171 97.6852 20.2074C97.8781 20.3026 98.0999 20.35 98.3493 20.35C98.62 20.35 98.8516 20.295 99.0396 20.1825C99.2273 20.0725 99.3717 19.9077 99.4722 19.6879C99.57 19.4704 99.6216 19.2007 99.6241 18.8809V12.4926ZM108.237 14.9909C108.196 14.6038 108.016 14.3013 107.702 14.0866C107.385 13.8691 106.975 13.7618 106.473 13.7618C106.121 13.7618 105.817 13.8143 105.564 13.9167C105.312 14.0216 105.116 14.1614 104.982 14.3389C104.849 14.5162 104.782 14.7186 104.776 14.946C104.776 15.1358 104.823 15.3008 104.913 15.4381C105.006 15.582 105.132 15.7027 105.281 15.7905C105.443 15.8906 105.616 15.9718 105.796 16.0327C105.987 16.0977 106.177 16.1527 106.368 16.1977L107.246 16.4101C107.599 16.4901 107.941 16.5973 108.268 16.7348C108.595 16.8698 108.891 17.0422 109.151 17.2495C109.411 17.4568 109.617 17.7066 109.769 17.999C109.921 18.2913 109.998 18.6336 109.998 19.0283C109.998 19.5603 109.859 20.0276 109.579 20.4323C109.298 20.8346 108.894 21.1494 108.363 21.3768C107.835 21.6017 107.197 21.7165 106.445 21.7165C105.719 21.7165 105.086 21.6065 104.552 21.3867C104.017 21.1695 103.6 20.8494 103.298 20.4298C102.997 20.0101 102.835 19.4979 102.812 18.8959H104.481C104.504 19.2107 104.607 19.473 104.782 19.6853C104.959 19.8952 105.191 20.05 105.474 20.155C105.76 20.2576 106.079 20.31 106.432 20.31C106.8 20.31 107.125 20.255 107.405 20.1476C107.684 20.0401 107.902 19.8903 108.06 19.6953C108.219 19.5028 108.299 19.2756 108.302 19.0158C108.299 18.7785 108.227 18.5811 108.088 18.4261C107.946 18.2712 107.75 18.1413 107.501 18.0364C107.249 17.9315 106.955 17.8365 106.62 17.7542L105.554 17.4894C104.784 17.2969 104.174 17.0047 103.728 16.6123C103.28 16.2201 103.059 15.7006 103.059 15.0484C103.059 14.5139 103.208 14.044 103.51 13.6417C103.808 13.2398 104.218 12.9273 104.735 12.705C105.255 12.4801 105.843 12.3701 106.496 12.3701C107.161 12.3701 107.743 12.4801 108.245 12.705C108.747 12.9273 109.141 13.237 109.427 13.6317C109.713 14.0267 109.862 14.4787 109.87 14.9909H108.237Z" fill="black"/>
</g>
<defs>
<clipPath id="clip0_37_86">
<rect width="110" height="22" fill="white"/>
</clipPath>
</defs>
</svg>
