<svg width="82" height="50" viewBox="0 0 82 50" fill="none" xmlns="http://www.w3.org/2000/svg">
<g clip-path="url(#clip0_37_52)">
<path d="M40.3046 49.8558C40.0287 49.8558 39.771 49.7822 39.5317 49.6534L37.0841 48.1996C36.7159 47.997 36.9 47.9234 37.0105 47.8867C37.5073 47.7211 37.5994 47.6841 38.1147 47.3898C38.1699 47.3529 38.2436 47.3714 38.2987 47.4082L40.176 48.5308C40.2495 48.5676 40.3416 48.5676 40.3967 48.5308L47.7398 44.2795C47.8134 44.2427 47.8503 44.169 47.8503 44.0771V35.593C47.8503 35.5008 47.8134 35.4274 47.7398 35.3905L40.3967 31.1577C40.3231 31.1207 40.2311 31.1207 40.176 31.1577L32.8328 35.3905C32.7592 35.4273 32.7223 35.5193 32.7223 35.5929V44.0769C32.7223 44.1507 32.7592 44.2426 32.8328 44.2795L34.8389 45.4389C35.9247 45.991 36.6056 45.3469 36.6056 44.7027V36.329C36.6056 36.2187 36.6976 36.1082 36.8264 36.1082H37.765C37.8755 36.1082 37.9858 36.2002 37.9858 36.329V44.7027C37.9858 46.1566 37.1944 47.0032 35.8142 47.0032C35.3909 47.0032 35.0597 47.0032 34.121 46.543L32.1887 45.4389C31.7102 45.1629 31.4158 44.6475 31.4158 44.0954V35.6113C31.4158 35.0593 31.7102 34.5438 32.1887 34.2679L39.5317 30.0166C39.9919 29.759 40.6177 29.759 41.0777 30.0166L48.4207 34.2679C48.8992 34.5438 49.1938 35.0593 49.1938 35.6113V44.0954C49.1938 44.6475 48.8992 45.1629 48.4207 45.4389L41.0777 49.6902C40.8384 49.8007 40.5623 49.8558 40.3046 49.8558ZM42.5683 44.0219C39.3478 44.0219 38.6852 42.5496 38.6852 41.2981C38.6852 41.1876 38.7772 41.0773 38.9061 41.0773H39.8631C39.9734 41.0773 40.0655 41.1508 40.0655 41.2613C40.2127 42.2367 40.636 42.7152 42.5868 42.7152C44.1326 42.7152 44.7954 42.3655 44.7954 41.5373C44.7954 41.0588 44.6112 40.7093 42.2003 40.4699C40.1943 40.2674 38.9428 39.8258 38.9428 38.2247C38.9428 36.734 40.1944 35.8505 42.2924 35.8505C44.6479 35.8505 45.8075 36.6604 45.9548 38.4269C45.9548 38.4824 45.9363 38.5375 45.8995 38.5927C45.8626 38.6295 45.8075 38.6663 45.7522 38.6663H44.7952C44.7032 38.6663 44.6112 38.5927 44.5928 38.5007C44.372 37.4886 43.8014 37.1572 42.2924 37.1572C40.5992 37.1572 40.3967 37.7462 40.3967 38.1878C40.3967 38.7215 40.636 38.8871 42.918 39.1816C45.1817 39.4762 46.2492 39.8994 46.2492 41.482C46.2307 43.1016 44.9057 44.0219 42.5683 44.0219Z" fill="#539E43"/>
<path d="M17.521 16.6739C17.521 16.3427 17.3369 16.0297 17.0424 15.8641L9.23926 11.3736C9.11028 11.2999 8.96315 11.2631 8.81602 11.2446H8.74229C8.59516 11.2446 8.44786 11.2999 8.31904 11.3736L0.515857 15.8641C0.221271 16.0297 0.0373535 16.3426 0.0373535 16.6739L0.0558249 28.7467C0.0558249 28.9123 0.147863 29.0779 0.294997 29.1516C0.44229 29.2437 0.626207 29.2437 0.755188 29.1516L5.39293 26.5015C5.68735 26.3359 5.87143 26.023 5.87143 25.6918V20.0418C5.87143 19.7106 6.05535 19.3977 6.34993 19.232L8.31904 18.091C8.46634 17.9989 8.63194 17.962 8.79754 17.962C8.96315 17.962 9.12875 17.9989 9.25774 18.091L11.2268 19.232C11.5214 19.3977 11.7053 19.7104 11.7053 20.0418V25.6918C11.7053 26.023 11.8894 26.3359 12.1839 26.5015L16.8216 29.1516C16.8932 29.1967 16.9762 29.2207 17.0608 29.2207C17.1455 29.2207 17.2284 29.1967 17.3001 29.1516C17.4474 29.0779 17.5394 28.9123 17.5394 28.7467L17.521 16.6739ZM55.0278 0.0552946C54.8807 -0.0184315 54.6966 -0.0184315 54.5676 0.0552946C54.4205 0.147333 54.3284 0.294467 54.3284 0.460072V12.4227C54.3284 12.533 54.2733 12.6434 54.1628 12.7171C54.0525 12.7722 53.942 12.7722 53.8316 12.7171L51.8808 11.5945C51.7378 11.513 51.5761 11.4702 51.4115 11.4702C51.2469 11.4702 51.0852 11.513 50.9421 11.5945L43.1389 16.1034C42.8445 16.269 42.6604 16.5819 42.6604 16.9131V25.9125C42.6604 26.2437 42.8445 26.5567 43.1389 26.7223L50.9421 31.2313C51.0852 31.3127 51.2469 31.3555 51.4115 31.3555C51.5761 31.3555 51.7378 31.3127 51.8808 31.2313L59.684 26.7223C59.9784 26.5567 60.1625 26.2438 60.1625 25.9125V3.47838C60.1625 3.1287 59.9784 2.81596 59.684 2.6502L55.0278 0.0552946ZM54.3101 22.9496C54.3101 23.0416 54.2733 23.1152 54.1996 23.1519L51.5311 24.6978C51.4939 24.716 51.4529 24.7254 51.4115 24.7254C51.37 24.7254 51.3291 24.716 51.2918 24.6978L48.6233 23.1519C48.5496 23.1152 48.5128 23.0231 48.5128 22.9496V19.8577C48.5128 19.7656 48.5496 19.6921 48.6233 19.6553L51.2918 18.1093C51.3291 18.0911 51.37 18.0816 51.4115 18.0816C51.4529 18.0816 51.4939 18.0911 51.5311 18.1093L54.1996 19.6553C54.2733 19.6919 54.3101 19.7841 54.3101 19.8577V22.9496ZM80.9955 19.7841C81.2901 19.6185 81.4557 19.3056 81.4557 18.9742V16.7843C81.4557 16.4531 81.2716 16.1402 80.9955 15.9746L73.2476 11.4841C73.1045 11.4027 72.9428 11.3599 72.7782 11.3599C72.6136 11.3599 72.4519 11.4027 72.3089 11.4841L64.5057 15.9929C64.2111 16.1585 64.0272 16.4714 64.0272 16.8026V25.8021C64.0272 26.1333 64.2112 26.4462 64.5057 26.6118L72.2536 31.0287C72.5482 31.1943 72.8979 31.1943 73.174 31.0287L77.8668 28.4156C78.0141 28.3419 78.1061 28.1763 78.1061 28.0107C78.1061 27.8451 78.0141 27.6795 77.8668 27.6058L70.0268 23.0969C69.8796 23.0048 69.7875 22.8577 69.7875 22.6921V19.8763C69.7875 19.7107 69.8796 19.5451 70.0268 19.4714L72.4745 18.0727C72.5461 18.0276 72.6291 18.0036 72.7137 18.0036C72.7984 18.0036 72.8813 18.0276 72.953 18.0727L75.4007 19.4714C75.548 19.5634 75.6399 19.7106 75.6399 19.8763V22.0848C75.6399 22.2504 75.7319 22.416 75.8792 22.4895C75.9509 22.5346 76.0338 22.5586 76.1185 22.5586C76.2032 22.5586 76.2861 22.5346 76.3577 22.4895L80.9955 19.7841Z" fill="#333333"/>
<path d="M72.6586 19.3607C72.6859 19.3427 72.7179 19.3331 72.7506 19.3331C72.7833 19.3331 72.8153 19.3427 72.8426 19.3607L74.3334 20.2257C74.3885 20.2627 74.4253 20.3178 74.4253 20.3913V22.1214C74.4253 22.195 74.3887 22.2502 74.3334 22.287L72.8426 23.152C72.8153 23.17 72.7833 23.1796 72.7506 23.1796C72.7179 23.1796 72.6859 23.17 72.6586 23.152L71.168 22.287C71.1127 22.2502 71.0759 22.195 71.0759 22.1214V20.3915C71.0759 20.3177 71.1126 20.2625 71.168 20.2259L72.6586 19.3607Z" fill="#539E43"/>
<path d="M30.5693 11.5209C30.4263 11.4395 30.2645 11.3967 30.1 11.3967C29.9354 11.3967 29.7737 11.4395 29.6307 11.5209L21.8828 15.9928C21.5882 16.1584 21.4226 16.4713 21.4226 16.8025V25.7652C21.4226 26.0964 21.6067 26.4093 21.8828 26.5749L29.6307 31.0471C29.7737 31.1285 29.9354 31.1713 30.1 31.1713C30.2645 31.1713 30.4263 31.1285 30.5693 31.0471L38.3174 26.5749C38.6118 26.4093 38.7775 26.0964 38.7775 25.7652V16.8026C38.7775 16.4714 38.5933 16.1585 38.3174 15.9929L30.5693 11.5209Z" fill="url(#paint0_linear_37_52)"/>
</g>
<defs>
<linearGradient id="paint0_linear_37_52" x1="1204.82" y1="357.194" x2="355.573" y2="1691.61" gradientUnits="userSpaceOnUse">
<stop stop-color="#41873F"/>
<stop offset="0.3288" stop-color="#418B3D"/>
<stop offset="0.6352" stop-color="#419637"/>
<stop offset="0.9319" stop-color="#3FA92D"/>
<stop offset="1" stop-color="#3FAE2A"/>
</linearGradient>
<clipPath id="clip0_37_52">
<rect width="81.53" height="50" fill="white"/>
</clipPath>
</defs>
</svg>
