<svg width="50" height="50" viewBox="0 0 50 50" fill="none" xmlns="http://www.w3.org/2000/svg">
<path d="M34.6446 34.418C31.1289 41.6055 24.9727 46.4414 16.8281 48.0312C15.5794 48.3372 14.2974 48.4868 13.0117 48.4766C8.32424 48.4766 4.02737 46.5234 1.94143 43.3242C-0.85935 39.0625 -1.81247 30.0273 7.4219 23.3437C7.6094 24.3633 7.99221 25.7617 8.24612 26.5898C6.43336 27.9366 4.94954 29.6768 3.90627 31.6797C2.18752 35.0547 2.37893 38.4258 4.41409 41.543C5.82034 43.6445 8.0469 44.9219 10.9102 45.3125C14.4865 45.7652 18.1146 45.0819 21.2813 43.3594C26.2461 40.75 29.5547 37.6328 31.7188 33.3711C31.1068 32.7387 30.7447 31.9061 30.6992 31.0273C30.6665 30.0843 31.0093 29.1668 31.6523 28.4762C32.2953 27.7857 33.186 27.3784 34.1289 27.3438H34.2617C35.1789 27.3392 36.0628 27.6873 36.7304 28.3162C37.398 28.9451 37.7983 29.8066 37.8485 30.7224C37.8987 31.6382 37.5949 32.5382 37 33.2363C36.4051 33.9344 35.5646 34.377 34.6524 34.4727L34.6446 34.418ZM45.8438 26.5273C50.6133 31.9336 50.7422 38.2969 48.8985 41.9883C47.1797 45.3594 42.6485 48.7344 36.5547 48.7344C33.71 48.6763 30.9116 48.0034 28.3516 46.7617C29.2461 46.125 30.5157 45.1055 31.2149 44.4688C33.189 45.324 35.3136 45.7781 37.4649 45.8047C41.4102 45.8047 44.3985 43.9609 46.1797 40.5898C47.3242 38.3633 47.3907 35.7539 46.3086 33.082C44.9809 29.7203 42.6183 26.8679 39.5625 24.9375C35.5534 22.2349 30.8272 20.7942 25.9922 20.8008H24.8477C24.5808 21.4173 24.1466 21.9468 23.5943 22.3292C23.042 22.7117 22.3937 22.9319 21.7227 22.9648H21.6016C20.6735 22.9534 19.7865 22.5807 19.1288 21.9258C18.4712 21.2708 18.0948 20.3853 18.0795 19.4573C18.0642 18.5293 18.4114 17.6319 19.0471 16.9557C19.6829 16.2795 20.5572 15.8778 21.4844 15.8359H21.6133C22.2594 15.8364 22.8929 16.015 23.4442 16.3519C23.9955 16.6889 24.4432 17.1713 24.7383 17.7461H25.7578C33.8828 17.7461 41.0157 20.8633 45.8438 26.5273ZM13.5196 35.5117C13.4527 34.8631 13.6098 34.211 13.9649 33.6641C10.4024 27.4922 8.49612 19.668 11.4219 11.5234C13.5196 5.40234 18.8008 1.26562 24.5274 1.26562C30.6367 1.26562 37 6.61328 37.7617 16.918C36.8086 16.6016 35.418 16.1367 34.5821 15.9648C34.375 12.5937 31.5274 4.19531 24.7813 4.32031C22.3633 4.38672 18.8008 5.53125 16.9688 7.88281C14.7026 10.6899 13.3843 14.143 13.2031 17.7461C12.7737 22.6866 13.9329 27.6352 16.5117 31.8711C16.6541 31.8191 16.8059 31.7978 16.9571 31.8086H17.0821C18.0269 31.7915 18.9398 32.1504 19.62 32.8065C20.3002 33.4625 20.6919 34.3618 20.709 35.3066C20.7261 36.2515 20.3672 37.1644 19.7112 37.8446C19.0551 38.5248 18.1558 38.9165 17.211 38.9336H17.0821C16.1603 38.9303 15.2754 38.5715 14.6117 37.9318C13.948 37.2921 13.5568 36.421 13.5196 35.5V35.5117Z" fill="#764ABC"/>
</svg>
